<?xml version="1.0" encoding="UTF-8"?> <svg xmlns="http://www.w3.org/2000/svg" id="a" viewBox="0 0 200 40"><defs><style>.c{fill:#fff;}.d{fill:#70d44b;}.e{fill:#00a0d4;}.f{fill:#ff4d00;}</style></defs><g id="b"><g><g><path class="d" d="M22.87086,11.19524l-.06111-.06085c-.55875-.55635-1.29502-.83743-2.02837-.83743s-1.46672,.27818-2.02837,.83743L6.33539,23.4959c-1.12041,1.11561-1.12041,2.92376,0,4.03937l.06111,.06085c.55875,.55635,1.29502,.83743,2.02837,.83743s1.46672-.27818,2.02837-.83743l12.41469-12.36151c1.12041-1.11561,1.12041-2.92376,.00291-4.03937Zm-6.77192,9.43485l-6.32084,6.29377c-.745,.74181-1.95853,.74181-2.70644,0l-.06111-.06085c-.745-.74181-.745-1.95014,0-2.69484l6.32084-6.29377c.745-.74181,1.95853-.74181,2.70644,0l.06111,.06085c.745,.7447,.745,1.95304,0,2.69484Z"></path><path class="e" d="M28.19061,16.4951l-.06111-.06085c-.55875-.55635-1.29502-.83743-2.02837-.83743s-1.46672,.27818-2.02837,.83743l-12.4176,12.36151c-1.12041,1.11561-1.12041,2.92376,0,4.03937l.06111,.06085c.55875,.55635,1.29502,.83743,2.02837,.83743s1.46672-.27818,2.02837-.83743l12.4176-12.36441c1.12041-1.11561,1.12041-2.92376,0-4.03647Zm-13.06075,15.69674c-.76537,.76209-2.00218,.76209-2.76755,0s-.76537-1.9936,0-2.7557c.76537-.76209,2.00218-.76209,2.76755,0,.76537,.76209,.76537,1.9965,0,2.7557Z"></path><path class="f" d="M1.01564,22.23831l.06111,.06085c.55875,.55635,1.29502,.83743,2.02837,.83743s1.46672-.27818,2.02837-.83743l12.4147-12.36151c1.12041-1.11561,1.12041-2.92376,0-4.03937l-.06111-.06085c-.55875-.55925-1.29502-.83743-2.02837-.83743s-1.46672,.27818-2.02837,.83743L1.01564,18.19894c-1.12041,1.11561-1.12041,2.92376,0,4.03937Zm.67515-3.36711L11.33794,9.26539c.745-.74181,1.95853-.74181,2.70644,0l.06111,.06085c.745,.74181,.745,1.95014,0,2.69484L4.45835,21.6269c-.745,.74181-1.95853,.74181-2.70644,0l-.06111-.06085c-.74791-.74181-.74791-1.95014,0-2.69484Z"></path></g><g><path class="c" d="M50.25245,11.70234l-.43943,2.02838h-5.8494c-.58494,0-1.0884,.07244-1.51037,.21733-.42488,.14488-.78574,.34482-1.08548,.59982s-.53547,.55635-.71299,.90408c-.17461,.35062-.30557,.72732-.39578,1.13299l-.39287,1.81105h8.85267l-.41615,1.96463h-8.85267l-1.29211,6.06485h-2.0371l2.08075-9.81735c.14551-.71283,.37541-1.3706,.6897-1.97332,.3143-.60272,.71881-1.1243,1.21644-1.55895,.49764-.43755,1.08548-.77368,1.76355-1.01419s1.47253-.35931,2.37759-.35931h6.00364Z"></path><path class="c" d="M54.23936,15.04047l-1.44634,6.82694c-.0291,.11591-.05238,.24341-.06693,.38249s-.02328,.27238-.02328,.40278c0,.58243,.21244,1.05765,.63441,1.42856,.42488,.3709,1.05056,.55635,1.88287,.55635h1.81884c.49764,0,.94871-.07244,1.35904-.21733,.40742-.14488,.76828-.34193,1.07385-.58823s.55875-.54187,.75664-.88379c.19789-.34193,.34049-.70124,.42779-1.08084l1.46671-6.82694h1.79556l-1.46671,6.89359c-.14551,.65488-.38123,1.25759-.70135,1.81105-.32012,.55346-.72172,1.02868-1.2048,1.42856s-1.04183,.70993-1.67624,.92726-1.3474,.32744-2.13605,.32744h-2.0371c-1.32994,0-2.31648-.30136-2.95671-.90408-.64314-.60272-.96326-1.40827-.96326-2.41087,0-.36221,.04365-.7563,.13096-1.17936l1.46671-6.89359h1.86541Z"></path><path class="c" d="M67.53874,15.04047l.59076-2.68325h1.83922l-.57039,2.68325h3.19826l-.39287,1.78787h-3.19826l-1.24845,5.91127c-.0291,.17386-.05529,.33613-.07566,.48102-.02328,.14488-.03201,.28397-.03201,.41437,0,.42306,.1135,.70993,.34049,.86061,.22699,.15358,.55875,.22892,.99818,.22892h1.48999l-.34922,1.70094h-1.88578c-.86141,0-1.49582-.15648-1.90615-.46943s-.61404-.86061-.61404-1.64588c0-.48102,.06693-1.04027,.19789-1.68066l1.24845-5.80406h-1.51037l.39578-1.78787h1.48418v.0029Z"></path><path class="c" d="M76.65332,15.04047l-1.44634,6.82694c-.0291,.11591-.05238,.24341-.06694,.38249-.01455,.13909-.02328,.27238-.02328,.40278,0,.58243,.21244,1.05765,.63441,1.42856,.42488,.3709,1.05056,.55635,1.88287,.55635h1.81884c.49763,0,.94871-.07244,1.35904-.21733,.40742-.14488,.76828-.34193,1.07385-.58823s.55875-.54187,.75664-.88379,.34049-.70124,.42779-1.08084l1.46672-6.82694h1.79557l-1.46672,6.89359c-.14551,.65488-.38123,1.25759-.70135,1.81105-.32012,.55346-.72172,1.02868-1.20481,1.42856s-1.04183,.70993-1.67625,.92726c-.63441,.21733-1.3474,.32744-2.13605,.32744h-2.0371c-1.32994,0-2.31648-.30136-2.95671-.90408-.64314-.60272-.96326-1.40827-.96326-2.41087,0-.36221,.04365-.7563,.13096-1.17936l1.46671-6.89359h1.86541Z"></path><path class="c" d="M97.00691,15.04047l-.39287,1.78787h-4.03056c-.55584,0-.98945,.13909-1.30375,.41437-.31429,.27528-.52965,.70703-.64605,1.28657l-1.68788,7.89618h-1.83922l1.73154-8.13669c.24736-1.11851,.64605-1.94145,1.19316-2.46593s1.35613-.78527,2.42125-.78527h4.55438v.0029Z"></path><path class="c" d="M106.49399,15.04047c1.12331,0,1.91197,.23761,2.36595,.70993,.45107,.47232,.67806,1.16777,.67806,2.08343,0,.4955-.06984,.97942-.20953,1.45174s-.37541,.89249-.71299,1.2547c-.33467,.36511-.79738,.65488-1.37941,.8722-.58494,.21733-1.31538,.32744-2.19134,.32744h-5.60785l-.17461,.89538c-.04365,.21733-.06694,.42306-.06694,.61141,0,.43755,.12805,.77948,.38414,1.02578s.68389,.3709,1.28046,.3709h6.70499l-.3725,1.78787h-6.72535c-1.12623,0-1.92652-.2434-2.4096-.73021s-.72172-1.1243-.72172-1.90957c0-.35062,.04365-.71862,.13096-1.11271l.80902-3.88289c.10186-.52448,.27355-1.01419,.51509-1.47202s.55002-.85482,.93125-1.18805c.37832-.33323,.8323-.59982,1.35904-.79686,.52674-.19704,1.13205-.29556,1.81884-.29556h3.59403v-.0029Zm-6.72826,5.21293h5.54383c.45398,0,.82939-.05506,1.12914-.16227,.29974-.11011,.53547-.25789,.71299-.44624,.17461-.18835,.29974-.39988,.3725-.63169s.11059-.48102,.11059-.74181c0-.46653-.1164-.82294-.35213-1.06924-.23281-.2463-.63441-.3709-1.20481-.3709h-3.55039c-.73045,0-1.29211,.18835-1.68788,.56795-.39578,.3796-.64897,.85192-.76828,1.41697l-.30556,1.43725Z"></path><path class="c" d="M139.0702,15.04047c1.5773,0,2.74718,.30426,3.50673,.91567s1.13787,1.48361,1.13787,2.61661c0,.2463-.01455,.48971-.04365,.73022s-.07275,.48391-.13096,.73022l-1.35904,6.39229h-1.86249l1.35904-6.39229c.0291-.17386,.05529-.33903,.07567-.48971s.03201-.31005,.03201-.46942c0-.7563-.25318-1.31844-.75664-1.69225-.50346-.3709-1.28046-.55635-2.33394-.55635h-3.94325c-.17461,0-.2852,.10142-.32885,.30426l-1.99345,9.29287h-1.83922l2.10404-9.86081c.1164-.56795,.30556-.96203,.57039-1.18805,.26191-.22602,.62859-.33903,1.09422-.33903h4.71153v.00579Z"></path><path class="c" d="M155.02074,15.04047c1.12331,0,1.91197,.23761,2.36595,.70993,.45107,.47232,.67807,1.16777,.67807,2.08343,0,.4955-.06984,.97942-.20952,1.45174s-.3754,.89249-.71299,1.2547c-.33467,.36511-.79738,.65488-1.37941,.8722-.58494,.21733-1.31539,.32744-2.19135,.32744h-5.60785l-.17461,.89538c-.04365,.21733-.06694,.42306-.06694,.61141,0,.43755,.12805,.77948,.38414,1.02578s.68389,.3709,1.28046,.3709h6.70498l-.37251,1.78787h-6.72535c-1.12623,0-1.92652-.2434-2.4096-.73021s-.72172-1.1243-.72172-1.90957c0-.35062,.04365-.71862,.13096-1.11271l.80902-3.88289c.10186-.52448,.27355-1.01419,.51509-1.47202s.55002-.85482,.93125-1.18805c.37832-.33323,.8323-.59982,1.35903-.79686s1.13205-.29556,1.81884-.29556h3.59404v-.0029Zm-6.72536,5.21293h5.54384c.45398,0,.82939-.05506,1.12914-.16227,.29975-.11011,.53548-.25789,.71299-.44624,.1746-.18835,.29975-.39988,.37251-.63169s.11059-.48102,.11059-.74181c0-.46653-.11641-.82294-.35213-1.06924-.23281-.2463-.63441-.3709-1.20481-.3709h-3.55039c-.73045,0-1.29211,.18835-1.68788,.56795-.39578,.3796-.64897,.85192-.76828,1.41697l-.30557,1.43725Z"></path><path class="c" d="M168.95451,15.04047l-.39286,1.78787h-4.03055c-.55583,0-.98946,.13909-1.30374,.41437-.3143,.27528-.52965,.70703-.64604,1.28657l-1.68788,7.89618h-1.83922l1.73154-8.13669c.24736-1.11851,.64604-1.94145,1.19315-2.46593s1.35612-.78527,2.42125-.78527h4.55435v.0029Z"></path><path class="c" d="M178.50563,15.04047c1.05056,0,1.85085,.25789,2.39796,.77368s.82066,1.28947,.82066,2.32394c0,.29267-.01746,.57664-.05529,.86061s-.09021,.59402-.16297,.92726l-1.42307,6.60961c-.1746,.78527-.38705,1.46043-.63441,2.02838s-.5704,1.03737-.96326,1.40827-.87596,.64329-1.44634,.81715c-.5704,.17386-1.25719,.26079-2.06039,.26079h-6.53038l.37251-1.78787h6.33249c.90505,0,1.59476-.21153,2.06911-.63169,.47436-.42306,.80612-1.1214,.99818-2.09502l.0873-.48102h-5.19171c-1.18443,0-2.10695-.33323-2.77047-1.0026s-.99818-1.75889-.99818-3.27148c0-1.0026,.14842-1.91827,.44816-2.7499,.29975-.82874,.7159-1.53867,1.24845-2.1269,.53256-.58823,1.17569-1.04606,1.92652-1.3735s1.58895-.48971,2.50855-.48971h3.02658Zm-7.27246,6.52268c0,1.0026,.18625,1.72702,.55874,2.17036,.37251,.44334,.99818,.66647,1.87414,.66647h5.01709l.96326-4.49431c.04366-.23181,.08149-.44624,.11059-.64329s.04366-.39698,.04366-.59982c0-.64039-.1746-1.10402-.52674-1.39668-.34922-.28977-.89924-.43755-1.64424-.43755h-2.36595c-1.22807,0-2.2059,.41437-2.93635,1.24311-.73043,.83163-1.0942,1.9936-1.0942,3.49171Z"></path><path class="c" d="M196.34194,15.04047l-10.27574,16.01259h-2.06039l3.24191-5.03907c-.6577,0-1.10294-.09852-1.33577-.29556-.23281-.19704-.38705-.52738-.45981-.9939l-1.75192-9.68695h1.90614l1.62096,8.81475c.02909,.20284,.09021,.34193,.18625,.41437s.24446,.11011,.44816,.11011h.43944l6.00364-9.33633h2.03712Z"></path><path class="c" d="M122.56092,13.72782h7.43543l.4569-2.02838h-7.53728c-2.07202,0-3.73663,.95623-4.22553,3.34682-.4016,1.95014-1.70826,8.2497-1.70826,8.2497l.03492-.02318c-.02037,.17676-.03201,.34772-.03201,.51579,0,.78527,.24154,1.42276,.72462,1.90957,.48309,.48681,1.28629,.73021,2.4096,.73021h7.58676l.3725-1.78787h-7.31321c-.59949,0-1.02728-.1246-1.28338-.3709s-.38414-.58823-.38414-1.02578c0-.18835,.02328-.39408,.06694-.61141,0,0,.23281-1.15038,.51801-2.55865h8.8032l.41615-1.96463h-8.81775c.29101-1.42276,.55293-2.70933,.62568-3.03677,.18624-.8693,.94871-1.34452,1.85085-1.34452Z"></path></g><path class="c" d="M196.67951,16.59073c0-.22022,.04075-.42306,.12513-.61141s.19789-.35352,.34048-.49261,.31139-.2492,.50345-.32744,.39286-.1188,.60823-.1188c.21244,0,.41324,.04057,.60532,.1188,.19206,.07824,.35794,.18835,.50054,.32744s.25609,.30426,.34048,.49261,.12513,.39408,.12513,.61141c0,.22602-.04075,.43176-.12513,.623s-.19789,.35641-.34048,.4955-.30848,.2492-.50054,.33034c-.19206,.07824-.39286,.1188-.60532,.1188-.21535,0-.41906-.04057-.60823-.1188-.19206-.07824-.35794-.18835-.50345-.33034-.14259-.13909-.25609-.30426-.34048-.4955-.08439-.18835-.12513-.39698-.12513-.623Zm.28519,0c0,.19125,.03201,.36801,.09895,.53028,.06693,.16227,.15714,.30426,.27064,.42306,.11641,.1188,.25318,.21443,.41032,.28108,.15714,.06954,.32885,.10142,.51219,.10142,.18043,0,.34922-.03477,.50636-.10142s.29101-.16227,.40743-.28108,.20663-.26079,.27064-.42306,.09895-.33903,.09895-.53028c0-.18545-.03201-.35931-.09895-.52158-.06693-.16227-.15714-.30136-.27064-.42016-.11641-.1188-.25318-.21153-.40743-.27818-.15714-.06665-.32594-.10142-.50636-.10142-.18334,0-.35503,.03477-.51219,.10142-.15714,.06954-.29393,.16227-.41032,.27818-.11641,.1188-.20663,.25789-.27064,.42016-.06693,.16227-.09895,.33613-.09895,.52158Zm.68098-.90408h.70716c.21826,0,.37832,.04347,.48308,.1304s.15714,.21733,.15714,.39119c0,.16517-.04655,.28397-.13677,.35931-.09313,.07534-.20663,.1217-.3434,.13619l.52382,.80556h-.30556l-.49764-.78237h-.30265v.78237h-.28519v-1.82264Zm.28519,.80845h.29684c.06112,0,.12222-.0029,.18043-.0058,.05821-.0029,.11059-.01739,.15425-.03477,.04366-.02028,.08149-.04926,.10767-.08983,.0262-.04057,.04075-.09562,.04075-.16807,0-.06085-.01163-.11011-.03492-.14488s-.05529-.06375-.09313-.08403-.08149-.03187-.13096-.04057c-.04947-.0058-.09604-.01159-.14551-.01159h-.3754v.57954h-.00002Z"></path></g></g></svg> 