<?xml version="1.0" encoding="utf-8"?>
<!-- Generator: Adobe Illustrator 26.3.1, SVG Export Plug-In . SVG Version: 6.00 Build 0)  -->
<svg version="1.1" id="a" xmlns="http://www.w3.org/2000/svg" xmlns:xlink="http://www.w3.org/1999/xlink" x="0px" y="0px"
	 viewBox="0 0 200 40" style="enable-background:new 0 0 200 40;" xml:space="preserve">
<style type="text/css">
	.st0{fill:#70D44B;}
	.st1{fill:#00A0D4;}
	.st2{fill:#FF4D00;}
</style>
<g id="b">
	<g>
		<g>
			<path class="st0" d="M22.9,11.2L22.9,11.2c-0.6-0.6-1.4-0.9-2.1-0.9s-1.5,0.3-2,0.8L6.3,23.5c-1.1,1.1-1.1,2.9,0,4l0.1,0.1
				c0.6,0.6,1.3,0.8,2,0.8s1.5-0.3,2-0.8l12.4-12.4C24,14.1,24,12.3,22.9,11.2L22.9,11.2z M16.1,20.6l-6.3,6.3c-0.7,0.7-2,0.7-2.7,0
				L7,26.9c-0.7-0.7-0.7-2,0-2.7l6.3-6.3c0.7-0.7,2-0.7,2.7,0l0.1,0.1C16.8,18.7,16.8,19.9,16.1,20.6z"/>
			<path class="st1" d="M28.2,16.5L28.2,16.5c-0.6-0.6-1.4-0.9-2.1-0.9s-1.5,0.3-2,0.8L11.7,28.8c-1.1,1.1-1.1,2.9,0,4l0.1,0.1
				c0.6,0.6,1.3,0.8,2,0.8s1.5-0.3,2-0.8l12.4-12.4C29.3,19.4,29.3,17.6,28.2,16.5z M15.1,32.2c-0.8,0.8-2,0.8-2.8,0s-0.8-2,0-2.8
				c0.8-0.8,2-0.8,2.8,0C15.9,30.2,15.9,31.4,15.1,32.2z"/>
			<path class="st2" d="M1,22.2L1,22.2c0.6,0.6,1.4,0.9,2.1,0.9s1.5-0.3,2-0.8L17.5,9.9c1.1-1.1,1.1-2.9,0-4l-0.1-0.1
				c-0.6-0.6-1.3-0.8-2-0.8s-1.5,0.3-2,0.8L1,18.2C-0.1,19.3-0.1,21.1,1,22.2z M1.7,18.9l9.6-9.6c0.7-0.7,2-0.7,2.7,0l0.1,0.1
				c0.7,0.7,0.7,2,0,2.7l-9.6,9.6c-0.7,0.7-2,0.7-2.7,0l-0.1-0.1C0.9,20.8,0.9,19.6,1.7,18.9L1.7,18.9z"/>
		</g>
		<g>
			<path d="M50.3,11.7l-0.4,2H44c-0.6,0-1.1,0.1-1.5,0.2c-0.4,0.1-0.8,0.3-1.1,0.6s-0.5,0.6-0.7,0.9c-0.2,0.4-0.3,0.7-0.4,1.1
				l-0.4,1.8h8.9l-0.4,2h-8.9l-1.3,6.1h-2l2.1-9.8c0.1-0.7,0.4-1.4,0.7-2c0.3-0.6,0.7-1.1,1.2-1.6c0.5-0.4,1.1-0.8,1.8-1
				s1.5-0.4,2.4-0.4L50.3,11.7L50.3,11.7z"/>
			<path d="M54.2,15l-1.4,6.8c0,0.1-0.1,0.2-0.1,0.4s0,0.3,0,0.4c0,0.6,0.2,1.1,0.6,1.4c0.4,0.4,1.1,0.6,1.9,0.6H57
				c0.5,0,0.9-0.1,1.4-0.2c0.4-0.1,0.8-0.3,1.1-0.6s0.6-0.5,0.8-0.9c0.2-0.3,0.3-0.7,0.4-1.1l1.5-6.8h1.8l-1.5,6.9
				c-0.1,0.7-0.4,1.3-0.7,1.8c-0.3,0.6-0.7,1-1.2,1.4s-1,0.7-1.7,0.9s-1.3,0.3-2.1,0.3h-2c-1.3,0-2.3-0.3-3-0.9
				c-0.6-0.6-1-1.4-1-2.4c0-0.4,0-0.8,0.1-1.2l1.5-6.9L54.2,15L54.2,15z"/>
			<path d="M67.5,15l0.6-2.7H70L69.4,15h3.2l-0.4,1.8H69l-1.2,5.9c0,0.2-0.1,0.3-0.1,0.5c0,0.1,0,0.3,0,0.4c0,0.4,0.1,0.7,0.3,0.9
				c0.2,0.2,0.6,0.2,1,0.2h1.5l-0.3,1.7h-1.9c-0.9,0-1.5-0.2-1.9-0.5s-0.6-0.9-0.6-1.6c0-0.5,0.1-1,0.2-1.7l1.2-5.8h-1.5l0.4-1.8
				L67.5,15C67.5,15,67.5,15,67.5,15z"/>
			<path d="M76.7,15l-1.4,6.8c0,0.1-0.1,0.2-0.1,0.4c0,0.1,0,0.3,0,0.4c0,0.6,0.2,1.1,0.6,1.4c0.4,0.4,1.1,0.6,1.9,0.6h1.8
				c0.5,0,0.9-0.1,1.4-0.2c0.4-0.1,0.8-0.3,1.1-0.6s0.6-0.5,0.8-0.9s0.3-0.7,0.4-1.1l1.5-6.8h1.8l-1.5,6.9c-0.1,0.7-0.4,1.3-0.7,1.8
				c-0.3,0.6-0.7,1-1.2,1.4s-1,0.7-1.7,0.9c-0.6,0.2-1.3,0.3-2.1,0.3h-2c-1.3,0-2.3-0.3-3-0.9c-0.6-0.6-1-1.4-1-2.4
				c0-0.4,0-0.8,0.1-1.2l1.5-6.9C74.8,15,76.7,15,76.7,15z"/>
			<path d="M97,15l-0.4,1.8h-4c-0.6,0-1,0.1-1.3,0.4c-0.3,0.3-0.5,0.7-0.6,1.3l-1.7,7.9h-1.8l1.7-8.1c0.2-1.1,0.6-1.9,1.2-2.5
				s1.4-0.8,2.4-0.8L97,15C97,15,97,15,97,15z"/>
			<path d="M106.5,15c1.1,0,1.9,0.2,2.4,0.7c0.5,0.5,0.7,1.2,0.7,2.1c0,0.5-0.1,1-0.2,1.5s-0.4,0.9-0.7,1.3
				c-0.3,0.4-0.8,0.7-1.4,0.9c-0.6,0.2-1.3,0.3-2.2,0.3h-5.6l-0.2,0.9c0,0.2-0.1,0.4-0.1,0.6c0,0.4,0.1,0.8,0.4,1s0.7,0.4,1.3,0.4
				h6.7l-0.4,1.8h-6.7c-1.1,0-1.9-0.2-2.4-0.7s-0.7-1.1-0.7-1.9c0-0.4,0-0.7,0.1-1.1l0.8-3.9c0.1-0.5,0.3-1,0.5-1.5s0.6-0.9,0.9-1.2
				c0.4-0.3,0.8-0.6,1.4-0.8s1.1-0.3,1.8-0.3L106.5,15L106.5,15L106.5,15z M99.8,20.3h5.5c0.5,0,0.8-0.1,1.1-0.2
				c0.3-0.1,0.5-0.3,0.7-0.4c0.2-0.2,0.3-0.4,0.4-0.6s0.1-0.5,0.1-0.7c0-0.5-0.1-0.8-0.4-1.1c-0.2-0.2-0.6-0.4-1.2-0.4h-3.6
				c-0.7,0-1.3,0.2-1.7,0.6c-0.4,0.4-0.6,0.9-0.8,1.4L99.8,20.3L99.8,20.3z"/>
			<path d="M139.1,15c1.6,0,2.7,0.3,3.5,0.9s1.1,1.5,1.1,2.6c0,0.2,0,0.5,0,0.7s-0.1,0.5-0.1,0.7l-1.4,6.4h-1.9l1.4-6.4
				c0-0.2,0.1-0.3,0.1-0.5s0-0.3,0-0.5c0-0.8-0.3-1.3-0.8-1.7c-0.5-0.4-1.3-0.6-2.3-0.6h-3.9c-0.2,0-0.3,0.1-0.3,0.3l-2,9.3h-1.8
				l2.1-9.9c0.1-0.6,0.3-1,0.6-1.2c0.3-0.2,0.6-0.3,1.1-0.3L139.1,15L139.1,15L139.1,15z"/>
			<path d="M155,15c1.1,0,1.9,0.2,2.4,0.7c0.5,0.5,0.7,1.2,0.7,2.1c0,0.5-0.1,1-0.2,1.5s-0.4,0.9-0.7,1.3c-0.3,0.4-0.8,0.7-1.4,0.9
				c-0.6,0.2-1.3,0.3-2.2,0.3H148l-0.2,0.9c0,0.2-0.1,0.4-0.1,0.6c0,0.4,0.1,0.8,0.4,1s0.7,0.4,1.3,0.4h6.7l-0.4,1.8H149
				c-1.1,0-1.9-0.2-2.4-0.7s-0.7-1.1-0.7-1.9c0-0.4,0-0.7,0.1-1.1l0.8-3.9c0.1-0.5,0.3-1,0.5-1.5s0.6-0.9,0.9-1.2
				c0.4-0.3,0.8-0.6,1.4-0.8s1.1-0.3,1.8-0.3L155,15L155,15L155,15z M148.3,20.3h5.5c0.5,0,0.8-0.1,1.1-0.2c0.3-0.1,0.5-0.3,0.7-0.4
				c0.2-0.2,0.3-0.4,0.4-0.6s0.1-0.5,0.1-0.7c0-0.5-0.1-0.8-0.4-1.1c-0.2-0.2-0.6-0.4-1.2-0.4h-3.6c-0.7,0-1.3,0.2-1.7,0.6
				c-0.4,0.4-0.6,0.9-0.8,1.4L148.3,20.3L148.3,20.3z"/>
			<path d="M169,15l-0.4,1.8h-4c-0.6,0-1,0.1-1.3,0.4c-0.3,0.3-0.5,0.7-0.6,1.3l-1.7,7.9h-1.8l1.7-8.1c0.2-1.1,0.6-1.9,1.2-2.5
				s1.4-0.8,2.4-0.8L169,15C169,15,169,15,169,15z"/>
			<path d="M178.5,15c1.1,0,1.9,0.3,2.4,0.8c0.5,0.5,0.8,1.3,0.8,2.3c0,0.3,0,0.6-0.1,0.9s-0.1,0.6-0.2,0.9l-1.4,6.6
				c-0.2,0.8-0.4,1.5-0.6,2s-0.6,1-1,1.4s-0.9,0.6-1.4,0.8c-0.6,0.2-1.3,0.3-2.1,0.3h-6.5l0.4-1.8h6.3c0.9,0,1.6-0.2,2.1-0.6
				c0.5-0.4,0.8-1.1,1-2.1l0.1-0.5h-5.2c-1.2,0-2.1-0.3-2.8-1s-1-1.8-1-3.3c0-1,0.1-1.9,0.4-2.7c0.3-0.8,0.7-1.5,1.2-2.1
				c0.5-0.6,1.2-1,1.9-1.4s1.6-0.5,2.5-0.5C175.5,15,178.5,15,178.5,15z M171.2,21.6c0,1,0.2,1.7,0.6,2.2c0.4,0.4,1,0.7,1.9,0.7h5
				l1-4.5c0-0.2,0.1-0.4,0.1-0.6s0-0.4,0-0.6c0-0.6-0.2-1.1-0.5-1.4c-0.3-0.3-0.9-0.4-1.6-0.4h-2.4c-1.2,0-2.2,0.4-2.9,1.2
				C171.6,18.9,171.2,20.1,171.2,21.6L171.2,21.6z"/>
			<path d="M196.3,15l-10.3,16H184l3.2-5c-0.7,0-1.1-0.1-1.3-0.3c-0.2-0.2-0.4-0.5-0.5-1l-1.8-9.7h1.9l1.6,8.8
				c0,0.2,0.1,0.3,0.2,0.4s0.2,0.1,0.4,0.1h0.4l6-9.3C194.3,15,196.3,15,196.3,15z"/>
			<path d="M122.6,13.7h7.4l0.5-2h-7.5c-2.1,0-3.7,1-4.2,3.3c-0.4,2-1.7,8.2-1.7,8.2l0,0c0,0.2,0,0.3,0,0.5c0,0.8,0.2,1.4,0.7,1.9
				c0.5,0.5,1.3,0.7,2.4,0.7h7.6l0.4-1.8h-7.3c-0.6,0-1-0.1-1.3-0.4s-0.4-0.6-0.4-1c0-0.2,0-0.4,0.1-0.6c0,0,0.2-1.2,0.5-2.6h8.8
				l0.4-2h-8.8c0.3-1.4,0.6-2.7,0.6-3C120.9,14.2,121.7,13.7,122.6,13.7z"/>
		</g>
		<path d="M196.7,16.6c0-0.2,0-0.4,0.1-0.6s0.2-0.4,0.3-0.5s0.3-0.2,0.5-0.3s0.4-0.1,0.6-0.1c0.2,0,0.4,0,0.6,0.1
			c0.2,0.1,0.4,0.2,0.5,0.3s0.3,0.3,0.3,0.5c0.1,0.2,0.1,0.4,0.1,0.6c0,0.2,0,0.4-0.1,0.6s-0.2,0.4-0.3,0.5s-0.3,0.2-0.5,0.3
			c-0.2,0.1-0.4,0.1-0.6,0.1c-0.2,0-0.4,0-0.6-0.1c-0.2-0.1-0.4-0.2-0.5-0.3c-0.1-0.1-0.3-0.3-0.3-0.5
			C196.7,17,196.7,16.8,196.7,16.6z M197,16.6c0,0.2,0,0.4,0.1,0.5c0.1,0.2,0.2,0.3,0.3,0.4c0.1,0.1,0.3,0.2,0.4,0.3
			c0.2,0.1,0.3,0.1,0.5,0.1c0.2,0,0.3,0,0.5-0.1s0.3-0.2,0.4-0.3s0.2-0.3,0.3-0.4s0.1-0.3,0.1-0.5c0-0.2,0-0.4-0.1-0.5
			c-0.1-0.2-0.2-0.3-0.3-0.4c-0.1-0.1-0.3-0.2-0.4-0.3c-0.2-0.1-0.3-0.1-0.5-0.1c-0.2,0-0.4,0-0.5,0.1c-0.2,0.1-0.3,0.2-0.4,0.3
			c-0.1,0.1-0.2,0.3-0.3,0.4C197,16.2,197,16.4,197,16.6z M197.6,15.7h0.7c0.2,0,0.4,0,0.5,0.1s0.2,0.2,0.2,0.4c0,0.2,0,0.3-0.1,0.4
			c-0.1,0.1-0.2,0.1-0.3,0.1l0.5,0.8h-0.3l-0.5-0.8h-0.3v0.8h-0.3V15.7L197.6,15.7z M197.9,16.5h0.3c0.1,0,0.1,0,0.2,0
			c0.1,0,0.1,0,0.2,0c0,0,0.1,0,0.1-0.1c0,0,0-0.1,0-0.2c0-0.1,0-0.1,0-0.1s-0.1-0.1-0.1-0.1s-0.1,0-0.1,0c0,0-0.1,0-0.1,0h-0.4
			L197.9,16.5L197.9,16.5L197.9,16.5z"/>
	</g>
</g>
</svg>
