<?xml version="1.0" encoding="utf-8"?>
<!-- Generator: Adobe Illustrator 26.3.1, SVG Export Plug-In . SVG Version: 6.00 Build 0)  -->
<svg version="1.1" id="Layer_1" xmlns="http://www.w3.org/2000/svg" xmlns:xlink="http://www.w3.org/1999/xlink" x="0px" y="0px"
	 viewBox="0 0 52.2 19.3" style="enable-background:new 0 0 52.2 19.3;" xml:space="preserve">
<style type="text/css">
	.st0{fill:#555553;}
</style>
<g>
	<g>
		<g>
			<path class="st0" d="M31,18.9h0.1H31"/>
			<path class="st0" d="M31.1,18.9h0.1C31.2,18.9,31.2,18.9,31.1,18.9"/>
			<path class="st0" d="M43.4,0.1h-1.5l-3.7,7.6h0.3h2.1h0.3L42.7,4l2.1,4.4H32.2l1.1,2.4h3.5l-2.3,4.8L26.9,0.1h-1.5l-3.6,7.5H22
				h2.1h0.3l1.7-3.5l2.1,4.3L10,8.5v2.4h6c-0.6,3-3.2,5.2-6.3,5.2c-3.5,0-6.4-2.9-6.4-6.4s2.9-6.4,6.4-6.4c1.8,0,3.5,0.8,4.7,2
				L16.6,3l0,0l0,0l-0.2-0.2c0,0-0.1,0-0.1-0.1C14.6,1,12.2,0,9.6,0C4.3,0,0,4.3,0,9.6s4.3,9.6,9.6,9.6c1,0,2-0.2,2.9-0.4
				c1.3-0.4,2.4-1,3.4-1.9c1.7-1.4,2.8-3.4,3.2-5.6c0.1-0.1,0.3-0.1,0.5,0c0.1,0,0.2,0.1,0.2,0.2l-3.5,7.7H20V19
				c0.1-0.4,0.5-1.9,0.8-2.6c0.1-0.2,0.2-0.4,0.2-0.6c0.5-1.3,1.1-2.6,2.2-3.5c0.8-0.7,1.9-1,3.4-1c0.4,0,0.7,0.1,1.1,0.2
				c1,0.3,1.7,0.9,2.4,1.8c0.9,1.3,2.1,4.3,2.1,4.3l0.6,1.5H33c0.1,0,0.2,0,0.3,0h0.1H36l0.6-1.5c0.1-0.2,0.2-0.4,0.2-0.6
				c1-2.7,2.3-6,5.5-6c1.5,0,2.8,0.7,3.7,2.1c0.8,1.3,1.9,4.3,1.9,4.4l0.6,1.6H52L43.4,0.1z"/>
		</g>
	</g>
</g>
</svg>
