<?xml version="1.0" encoding="utf-8"?>
<!-- Generator: Adobe Illustrator 25.2.3, SVG Export Plug-In . SVG Version: 6.00 Build 0)  -->
<svg version="1.1" id="Layer_1" xmlns="http://www.w3.org/2000/svg" xmlns:xlink="http://www.w3.org/1999/xlink" x="0px" y="0px"
	 viewBox="0 0 250 19.3" style="enable-background:new 0 0 250 19.3;" xml:space="preserve">
<style type="text/css">
	.st0{fill:#555553;}
</style>
<g>
	<g>
		<g>
			<path class="st0" d="M31,18.9c0,0,0.1,0,0.1,0C31.1,18.9,31,18.9,31,18.9"/>
			<path class="st0" d="M31.1,18.9c0,0,0.1,0,0.1,0C31.2,18.9,31.2,18.9,31.1,18.9"/>
			<path class="st0" d="M43.4,0.1h-1.5l-3.7,7.6h0.3h2.1h0.3L42.7,4l2.1,4.4l-12.6,0l1.1,2.4l3.5,0l-2.3,4.8L26.9,0.1h-1.5l-3.6,7.5
				H22h2.1h0.3l1.7-3.5l2.1,4.3L10,8.5v2.4h6c-0.6,3-3.2,5.2-6.3,5.2c-3.5,0-6.4-2.9-6.4-6.4s2.9-6.4,6.4-6.4c1.8,0,3.5,0.8,4.7,2
				L16.6,3c0,0,0,0,0,0l0,0l-0.2-0.2c0,0-0.1,0-0.1-0.1C14.6,1,12.2,0,9.6,0C4.3,0,0,4.3,0,9.6s4.3,9.6,9.6,9.6c1,0,2-0.2,2.9-0.4
				c1.3-0.4,2.4-1,3.4-1.9c1.7-1.4,2.8-3.4,3.2-5.6c0.1-0.1,0.3-0.1,0.5,0c0.1,0,0.2,0.1,0.2,0.2l-3.5,7.7H20L20,19
				c0.1-0.4,0.5-1.9,0.8-2.6c0.1-0.2,0.2-0.4,0.2-0.6c0.5-1.3,1.1-2.6,2.2-3.5c0.8-0.7,1.9-1,3.4-1c0.4,0,0.7,0.1,1.1,0.2
				c1,0.3,1.7,0.9,2.4,1.8c0.9,1.3,2.1,4.3,2.1,4.3l0.6,1.5l0.2,0c0.1,0,0.2,0,0.3,0c0,0,0.1,0,0.1,0l2.6,0l0.6-1.5
				c0.1-0.2,0.2-0.4,0.2-0.6c1-2.7,2.3-6,5.5-6c1.5,0,2.8,0.7,3.7,2.1c0.8,1.3,1.9,4.3,1.9,4.4l0.6,1.6h3.5L43.4,0.1z"/>
		</g>
	</g>
</g>
<g>
	<path class="st0" d="M59.9,12.2l-1-3.7h0c0,0.6,0.1,1.1,0.1,1.5v2.2h-1.2V7.1h1.8l1.1,3.6h0l1-3.6h1.8v5.1h-1.3V10
		c0-0.1,0-0.2,0-0.4c0-0.1,0-0.5,0-1h0l-1,3.7H59.9z"/>
	<path class="st0" d="M67.7,12.2l-0.2-1h-1.7l-0.3,1h-1.5l1.7-5.1h1.8l1.7,5.1H67.7z M67.2,10.1L67,9.3c-0.1-0.2-0.1-0.4-0.2-0.7
		c-0.1-0.3-0.1-0.5-0.1-0.6c0,0.1-0.1,0.3-0.1,0.6c-0.1,0.3-0.2,0.8-0.4,1.6H67.2z"/>
	<path class="st0" d="M74.6,12.2h-1.8L71,8.6h0c0,0.6,0.1,1,0.1,1.3v2.3h-1.2V7.1h1.8l1.8,3.5h0c0-0.5,0-0.9,0-1.2V7.1h1.2V12.2z"/>
	<path class="st0" d="M80,7.1v3.1c0,0.7-0.2,1.2-0.6,1.5c-0.4,0.4-0.9,0.5-1.6,0.5c-0.7,0-1.2-0.2-1.6-0.5c-0.4-0.4-0.6-0.9-0.6-1.5
		V7.1h1.4v3c0,0.4,0.1,0.6,0.2,0.8c0.1,0.2,0.3,0.2,0.6,0.2c0.3,0,0.5-0.1,0.6-0.2c0.1-0.2,0.2-0.4,0.2-0.8v-3H80z"/>
	<path class="st0" d="M82.4,12.2h-1.4V7.1h3v1.1h-1.7v1H84v1.1h-1.5V12.2z"/>
	<path class="st0" d="M88,12.2l-0.2-1h-1.7l-0.3,1h-1.5L86,7.1h1.8l1.7,5.1H88z M87.5,10.1l-0.2-0.8c-0.1-0.2-0.1-0.4-0.2-0.7
		C87,8.3,87,8,87,7.9c0,0.1-0.1,0.3-0.1,0.6c-0.1,0.3-0.2,0.8-0.4,1.6H87.5z"/>
	<path class="st0" d="M92.4,8.2c-0.3,0-0.6,0.1-0.8,0.4c-0.2,0.3-0.3,0.6-0.3,1.1c0,1,0.4,1.5,1.1,1.5c0.2,0,0.4,0,0.7-0.1
		c0.2-0.1,0.4-0.1,0.6-0.2V12c-0.4,0.2-0.9,0.3-1.4,0.3c-0.8,0-1.4-0.2-1.8-0.7c-0.4-0.4-0.6-1.1-0.6-1.9c0-0.5,0.1-1,0.3-1.4
		c0.2-0.4,0.5-0.7,0.9-0.9C91.4,7.1,91.9,7,92.4,7c0.5,0,1.1,0.1,1.6,0.4l-0.4,1.1c-0.2-0.1-0.4-0.2-0.6-0.2
		C92.8,8.2,92.6,8.2,92.4,8.2z"/>
	<path class="st0" d="M96.9,12.2h-1.4v-4h-1.2V7.1h3.8v1.1h-1.2V12.2z"/>
	<path class="st0" d="M103.2,7.1v3.1c0,0.7-0.2,1.2-0.6,1.5c-0.4,0.4-0.9,0.5-1.6,0.5c-0.7,0-1.2-0.2-1.6-0.5
		c-0.4-0.4-0.6-0.9-0.6-1.5V7.1h1.4v3c0,0.4,0.1,0.6,0.2,0.8c0.1,0.2,0.3,0.2,0.6,0.2c0.3,0,0.5-0.1,0.6-0.2
		c0.1-0.2,0.2-0.4,0.2-0.8v-3H103.2z"/>
	<path class="st0" d="M105.7,10.3v1.8h-1.4V7.1h1.7c1.4,0,2.1,0.5,2.1,1.5c0,0.6-0.3,1-0.9,1.4l1.5,2.2h-1.6l-1.1-1.8H105.7z
		 M105.7,9.3h0.3c0.5,0,0.7-0.2,0.7-0.6c0-0.3-0.2-0.5-0.7-0.5h-0.3V9.3z"/>
	<path class="st0" d="M109.1,12.2V7.1h1.4v5.1H109.1z"/>
	<path class="st0" d="M116.4,12.2h-1.8l-1.9-3.6h0c0,0.6,0.1,1,0.1,1.3v2.3h-1.2V7.1h1.8l1.8,3.5h0c0-0.5,0-0.9,0-1.2V7.1h1.2V12.2z
		"/>
	<path class="st0" d="M119.6,9.2h2.2v2.7c-0.6,0.2-1.2,0.3-2,0.3c-0.8,0-1.4-0.2-1.8-0.7c-0.4-0.5-0.6-1.1-0.6-1.9
		c0-0.8,0.2-1.5,0.7-1.9c0.5-0.5,1.1-0.7,2-0.7c0.3,0,0.6,0,0.9,0.1c0.3,0.1,0.5,0.1,0.7,0.2l-0.4,1.1c-0.4-0.2-0.8-0.3-1.2-0.3
		c-0.4,0-0.7,0.1-0.9,0.4c-0.2,0.3-0.3,0.6-0.3,1.1c0,0.5,0.1,0.8,0.3,1.1c0.2,0.2,0.5,0.4,0.9,0.4c0.2,0,0.4,0,0.6-0.1v-0.8h-0.9
		V9.2z"/>
	<path class="st0" d="M127.8,12.2l-0.3-1h-1.6l-0.3,1h-1.5l1.7-5.1h1.8l1.7,5.1H127.8z M127.2,10.1L127,9.3
		c-0.1-0.2-0.1-0.4-0.2-0.7c-0.1-0.3-0.1-0.5-0.1-0.6c0,0.1-0.1,0.3-0.1,0.6c-0.1,0.3-0.2,0.8-0.4,1.6H127.2z"/>
	<path class="st0" d="M134.6,12.2h-1.8L131,8.6h0c0,0.6,0.1,1,0.1,1.3v2.3h-1.2V7.1h1.8l1.8,3.5h0c0-0.5,0-0.9,0-1.2V7.1h1.2V12.2z"
		/>
	<path class="st0" d="M140,9.5c0,0.8-0.2,1.5-0.7,2c-0.5,0.5-1.1,0.7-2,0.7h-1.6V7.1h1.8c0.8,0,1.4,0.2,1.9,0.6
		C139.8,8.1,140,8.7,140,9.5z M138.6,9.6c0-0.5-0.1-0.8-0.3-1c-0.2-0.2-0.5-0.3-0.8-0.3h-0.4v2.8h0.3c0.4,0,0.7-0.1,0.9-0.4
		C138.5,10.4,138.6,10.1,138.6,9.6z"/>
	<path class="st0" d="M146.1,10.6c0,0.3-0.1,0.6-0.2,0.8c-0.2,0.2-0.4,0.4-0.7,0.6c-0.3,0.1-0.7,0.2-1.1,0.2c-0.3,0-0.6,0-0.9-0.1
		c-0.2,0-0.5-0.1-0.7-0.2v-1.2c0.3,0.1,0.5,0.2,0.8,0.3c0.3,0.1,0.5,0.1,0.8,0.1c0.2,0,0.4,0,0.4-0.1c0.1-0.1,0.1-0.2,0.1-0.3
		c0-0.1,0-0.1-0.1-0.2c0-0.1-0.1-0.1-0.2-0.2s-0.3-0.2-0.7-0.3c-0.3-0.2-0.6-0.3-0.7-0.4c-0.2-0.1-0.3-0.3-0.4-0.5
		c-0.1-0.2-0.1-0.4-0.1-0.6c0-0.5,0.2-0.8,0.5-1.1c0.3-0.3,0.8-0.4,1.4-0.4c0.5,0,1.1,0.1,1.6,0.4l-0.4,1.1
		c-0.5-0.2-0.9-0.3-1.2-0.3c-0.2,0-0.3,0-0.4,0.1C144,8.3,144,8.4,144,8.5c0,0.1,0.1,0.2,0.2,0.3c0.1,0.1,0.4,0.2,0.8,0.4
		c0.4,0.2,0.7,0.4,0.9,0.6C146,10,146.1,10.3,146.1,10.6z"/>
	<path class="st0" d="M151.2,7.1v3.1c0,0.7-0.2,1.2-0.6,1.5c-0.4,0.4-0.9,0.5-1.6,0.5c-0.7,0-1.2-0.2-1.6-0.5
		c-0.4-0.4-0.6-0.9-0.6-1.5V7.1h1.4v3c0,0.4,0.1,0.6,0.2,0.8c0.1,0.2,0.3,0.2,0.6,0.2c0.3,0,0.5-0.1,0.6-0.2
		c0.1-0.2,0.2-0.4,0.2-0.8v-3H151.2z"/>
	<path class="st0" d="M156,8.7c0,0.6-0.2,1-0.5,1.3c-0.3,0.3-0.8,0.5-1.4,0.5h-0.4v1.7h-1.4V7.1h1.8c0.6,0,1.1,0.1,1.4,0.4
		C155.8,7.8,156,8.2,156,8.7z M153.7,9.4h0.3c0.2,0,0.4-0.1,0.5-0.2c0.1-0.1,0.2-0.3,0.2-0.5c0-0.3-0.2-0.5-0.6-0.5h-0.4V9.4z"/>
	<path class="st0" d="M160.5,8.7c0,0.6-0.2,1-0.5,1.3c-0.3,0.3-0.8,0.5-1.4,0.5h-0.4v1.7h-1.4V7.1h1.8c0.6,0,1.1,0.1,1.4,0.4
		C160.3,7.8,160.5,8.2,160.5,8.7z M158.2,9.4h0.3c0.2,0,0.4-0.1,0.5-0.2c0.1-0.1,0.2-0.3,0.2-0.5c0-0.3-0.2-0.5-0.6-0.5h-0.4V9.4z"
		/>
	<path class="st0" d="M161.3,12.2V7.1h1.4v4h2v1.1H161.3z"/>
	<path class="st0" d="M167.2,9l0.9-1.9h1.5l-1.7,3.1v2h-1.4v-1.9l-1.7-3.1h1.5L167.2,9z"/>
	<path class="st0" d="M174.3,8.2c-0.3,0-0.6,0.1-0.8,0.4c-0.2,0.3-0.3,0.6-0.3,1.1c0,1,0.4,1.5,1.1,1.5c0.2,0,0.4,0,0.7-0.1
		c0.2-0.1,0.4-0.1,0.6-0.2V12c-0.4,0.2-0.9,0.3-1.4,0.3c-0.8,0-1.4-0.2-1.8-0.7c-0.4-0.4-0.6-1.1-0.6-1.9c0-0.5,0.1-1,0.3-1.4
		c0.2-0.4,0.5-0.7,0.9-0.9c0.4-0.2,0.8-0.3,1.3-0.3c0.5,0,1.1,0.1,1.6,0.4l-0.4,1.1c-0.2-0.1-0.4-0.2-0.6-0.2
		C174.7,8.2,174.5,8.2,174.3,8.2z"/>
	<path class="st0" d="M181,12.2h-1.4v-2.1H178v2.1h-1.4V7.1h1.4V9h1.6V7.1h1.4V12.2z"/>
	<path class="st0" d="M185.2,12.2l-0.3-1h-1.6l-0.3,1h-1.5l1.7-5.1h1.8l1.7,5.1H185.2z M184.6,10.1l-0.2-0.8
		c-0.1-0.2-0.1-0.4-0.2-0.7c-0.1-0.3-0.1-0.5-0.1-0.6c0,0.1-0.1,0.3-0.1,0.6c-0.1,0.3-0.2,0.8-0.4,1.6H184.6z"/>
	<path class="st0" d="M187.2,12.2V7.1h1.4v5.1H187.2z"/>
	<path class="st0" d="M194.5,12.2h-1.8l-1.9-3.6h0c0,0.6,0.1,1,0.1,1.3v2.3h-1.2V7.1h1.8l1.8,3.5h0c0-0.5,0-0.9,0-1.2V7.1h1.2V12.2z
		"/>
	<path class="st0" d="M199.7,12.2l-1-3.7h0c0,0.6,0.1,1.1,0.1,1.5v2.2h-1.2V7.1h1.8l1.1,3.6h0l1-3.6h1.8v5.1H202V10
		c0-0.1,0-0.2,0-0.4c0-0.1,0-0.5,0-1h0l-1,3.7H199.7z"/>
	<path class="st0" d="M207.5,12.2l-0.3-1h-1.6l-0.3,1h-1.5l1.7-5.1h1.8l1.7,5.1H207.5z M206.9,10.1l-0.2-0.8
		c-0.1-0.2-0.1-0.4-0.2-0.7c-0.1-0.3-0.1-0.5-0.1-0.6c0,0.1-0.1,0.3-0.1,0.6c-0.1,0.3-0.2,0.8-0.4,1.6H206.9z"/>
	<path class="st0" d="M214.4,12.2h-1.8l-1.9-3.6h0c0,0.6,0.1,1,0.1,1.3v2.3h-1.2V7.1h1.8l1.8,3.5h0c0-0.5,0-0.9,0-1.2V7.1h1.2V12.2z
		"/>
	<path class="st0" d="M218.6,12.2l-0.3-1h-1.6l-0.3,1h-1.5l1.7-5.1h1.8l1.7,5.1H218.6z M218,10.1l-0.2-0.8c-0.1-0.2-0.1-0.4-0.2-0.7
		c-0.1-0.3-0.1-0.5-0.1-0.6c0,0.1-0.1,0.3-0.1,0.6c-0.1,0.3-0.2,0.8-0.4,1.6H218z"/>
	<path class="st0" d="M222.7,9.2h2.2v2.7c-0.6,0.2-1.2,0.3-2,0.3c-0.8,0-1.4-0.2-1.8-0.7c-0.4-0.5-0.6-1.1-0.6-1.9
		c0-0.8,0.2-1.5,0.7-1.9c0.5-0.5,1.1-0.7,2-0.7c0.3,0,0.6,0,0.9,0.1c0.3,0.1,0.5,0.1,0.7,0.2l-0.4,1.1c-0.4-0.2-0.8-0.3-1.2-0.3
		c-0.4,0-0.7,0.1-0.9,0.4c-0.2,0.3-0.3,0.6-0.3,1.1c0,0.5,0.1,0.8,0.3,1.1s0.5,0.4,0.9,0.4c0.2,0,0.4,0,0.6-0.1v-0.8h-0.9V9.2z"/>
	<path class="st0" d="M228.9,12.2h-3V7.1h3v1.1h-1.6V9h1.5v1.1h-1.5v1h1.6V12.2z"/>
	<path class="st0" d="M232,12.2l-1-3.7h0c0,0.6,0.1,1.1,0.1,1.5v2.2h-1.2V7.1h1.8l1.1,3.6h0l1-3.6h1.8v5.1h-1.3V10
		c0-0.1,0-0.2,0-0.4c0-0.1,0-0.5,0-1h0l-1,3.7H232z"/>
	<path class="st0" d="M239.7,12.2h-3V7.1h3v1.1h-1.6V9h1.5v1.1h-1.5v1h1.6V12.2z"/>
	<path class="st0" d="M245.4,12.2h-1.8l-1.9-3.6h0c0,0.6,0.1,1,0.1,1.3v2.3h-1.2V7.1h1.8l1.8,3.5h0c0-0.5,0-0.9,0-1.2V7.1h1.2V12.2z
		"/>
	<path class="st0" d="M248.8,12.2h-1.4v-4h-1.2V7.1h3.8v1.1h-1.2V12.2z"/>
</g>
</svg>
